Coordinates
version=1
nRows=43
nColumns=12
inDegrees=yes

Units are S.I. units (second, meters, Newtons, ...)
Angles are in degrees

endheader
time	SC_y	SC_z	SC_x	AC_y	AC_z	AC_x	GH_y	GH_z	GH_yy	EL_x	PS_y
       0.0              -59.96          32.23          82.12          57.31         0.5262         -17.57          90.48         -4.438          67.41          128.2          117.5
  0.006481              -59.96          32.23          82.11          57.31         0.5238         -17.57          90.46          -4.44           67.4          128.2          117.6
   0.01296              -59.96          32.22          82.11          57.31         0.5213         -17.56          90.44         -4.442          67.38          128.2          117.6
   0.01944              -59.96          32.22           82.1           57.3         0.5187         -17.56          90.42         -4.445          67.37          128.2          117.6
   0.02592              -59.96          32.22          82.08           57.3         0.5159         -17.55           90.4         -4.447          67.36          128.2          117.6
    0.0324              -59.96          32.22          82.07          57.29         0.5128         -17.54          90.38          -4.45          67.34          128.2          117.6
   0.03888              -59.96          32.21          82.06          57.29         0.5096         -17.54          90.36         -4.452          67.33          128.2          117.6
   0.04537              -59.96          32.21          82.05          57.28         0.5062         -17.53          90.33         -4.455          67.31          128.2          117.6
   0.05185              -59.96          32.21          82.04          57.28         0.5025         -17.52          90.31         -4.459          67.29          128.2          117.6
   0.05833              -59.96           32.2          82.02          57.27         0.4986         -17.51          90.28         -4.462          67.27          128.2          117.6
   0.06481              -59.96           32.2          82.01          57.27         0.4944          -17.5          90.25         -4.466          67.25          128.2          117.6
   0.07129              -59.96           32.2          81.99          57.26         0.4898         -17.49          90.21          -4.47          67.23          128.2          117.6
   0.07777              -59.96          32.19          81.97          57.25         0.4849         -17.48          90.18         -4.474          67.21          128.2          117.6
   0.08425              -59.96          32.19          81.95          57.25         0.4796         -17.47          90.14         -4.478          67.18          128.2          117.7
   0.09073              -59.96          32.18          81.93          57.24         0.4738         -17.46           90.1         -4.483          67.15          128.2          117.7
   0.09721              -59.96          32.18          81.91          57.23         0.4676         -17.45          90.06         -4.489          67.12          128.2          117.7
    0.1037              -59.96          32.17          81.88          57.22         0.4608         -17.43          90.01         -4.494          67.09          128.2          117.7
    0.1102              -59.96          32.16          81.85          57.21         0.4535         -17.42          89.95         -4.501          67.05          128.2          117.7
    0.1167              -59.95          32.16          81.83           57.2         0.4454          -17.4           89.9         -4.508          67.01          128.2          117.7
    0.1231              -59.95          32.15          81.79          57.18         0.4366         -17.38          89.83         -4.515          66.97          128.2          117.7
    0.1296              -59.95          32.14          81.76          57.17         0.4269         -17.36          89.76         -4.524          66.92          128.2          117.8
    0.1361              -59.95          32.13          81.72          57.15         0.4163         -17.34          89.69         -4.533          66.87          128.2          117.8
    0.1426              -59.95          32.12          81.67          57.14         0.4045         -17.31           89.6         -4.543          66.81          128.2          117.8
    0.1491              -59.95          32.11          81.63          57.12         0.3915         -17.28          89.51         -4.554          66.75          128.2          117.8
    0.1555              -59.95           32.1          81.57           57.1          0.377         -17.25          89.41         -4.567          66.68          128.2          117.9
     0.162              -59.95          32.08          81.51          57.07         0.3608         -17.22          89.29          -4.58           66.6          128.2          117.9
    0.1685              -59.94          32.06          81.45          57.05         0.3427         -17.18          89.16         -4.596          66.51          128.2          118.0
     0.175              -59.94          32.05          81.37          57.02         0.3223         -17.14          89.01         -4.614          66.41          128.3          118.0
    0.1815              -59.94          32.03          81.29          56.98         0.2993         -17.09          88.85         -4.633           66.3          128.3          118.0
    0.1879              -59.94           32.0          81.19          56.95         0.2732         -17.03          88.66         -4.656          66.18          128.3          118.1
    0.1944              -59.93          31.98          81.08           56.9         0.2433         -16.97          88.45         -4.682          66.03          128.3          118.2
    0.2009              -59.93          31.95          80.95          56.85         0.2091         -16.89           88.2         -4.711          65.86          128.3          118.2
    0.2074              -59.92          31.91          80.81           56.8         0.1696         -16.81          87.92         -4.745          65.67          128.3          118.3
    0.2139              -59.92          31.87          80.64          56.73         0.1236         -16.71          87.59         -4.785          65.45          128.3          118.4
    0.2203              -59.91          31.82          80.44          56.65        0.06988          -16.6           87.2         -4.831          65.19          128.3          118.6
    0.2268              -59.91          31.77          80.21          56.56        0.00652         -16.46          86.75         -4.885          64.88          128.3          118.7
    0.2333               -59.9           31.7          79.93          56.45       -0.06878          -16.3          86.21          -4.95          64.51          128.3          118.9
    0.2398              -59.89          31.62          79.59          56.32         -0.159         -16.11          85.56         -5.028          64.07          128.3          119.1
    0.2463              -59.87          31.52          79.19          56.16        -0.2682         -15.88          84.78         -5.122          63.54          128.3          119.3
    0.2527              -59.86          31.41           78.7          55.97        -0.4016         -15.59          83.82         -5.236          62.89          128.3          119.6
    0.2592              -59.84          31.26          78.09          55.73        -0.5662         -15.24          82.64         -5.378          62.09          128.3          120.0
    0.2657              -59.82          31.08          77.33          55.43        -0.7715          -14.8          81.17         -5.555          61.09          128.4          120.4
    0.2722              -59.79          30.85          76.38          55.06          -1.03         -14.25          79.32         -5.777          59.83          128.4          121.0
